<svg width="25" height="25" viewBox="0 0 25 25" fill="none" xmlns="http://www.w3.org/2000/svg">
<path d="M9.04688 12.5L11.4569 14.92L16.2869 10.08" stroke="#2C2A29" stroke-width="2" stroke-linecap="round" stroke-linejoin="round"/>
<path d="M11.4169 2.95001C12.1069 2.36001 13.2369 2.36001 13.9369 2.95001L15.5169 4.31001C15.8169 4.57001 16.3769 4.78001 16.7769 4.78001H18.4769C19.5369 4.78001 20.4069 5.65001 20.4069 6.71001V8.41001C20.4069 8.80001 20.6169 9.37001 20.8769 9.67001L22.2369 11.25C22.8269 11.94 22.8269 13.07 22.2369 13.77L20.8769 15.35C20.6169 15.65 20.4069 16.21 20.4069 16.61V18.31C20.4069 19.37 19.5369 20.24 18.4769 20.24H16.7769C16.3869 20.24 15.8169 20.45 15.5169 20.71L13.9369 22.07C13.2469 22.66 12.1169 22.66 11.4169 22.07L9.83687 20.71C9.53687 20.45 8.97687 20.24 8.57687 20.24H6.84687C5.78687 20.24 4.91687 19.37 4.91687 18.31V16.6C4.91687 16.21 4.70687 15.65 4.45687 15.35L3.10688 13.76C2.52688 13.07 2.52688 11.95 3.10688 11.26L4.45687 9.67001C4.70687 9.37001 4.91687 8.81001 4.91687 8.42001V6.70001C4.91687 5.64001 5.78687 4.77001 6.84687 4.77001H8.57687C8.96687 4.77001 9.53687 4.56001 9.83687 4.30001L11.4169 2.95001Z" stroke="#2C2A29" stroke-width="2" stroke-linecap="round" stroke-linejoin="round"/>
</svg>
